<?xml version="1.0" standalone="no"?>
<!DOCTYPE svg PUBLIC "-//W3C//DTD SVG 1.1//EN" "http://www.w3.org/Graphics/SVG/1.1/DTD/svg11.dtd" >
<svg xmlns="http://www.w3.org/2000/svg">
<metadata></metadata>
<defs>
<font id="ford_antenna_regularregular" horiz-adv-x="1208" >
<font-face units-per-em="2048" ascent="1638" descent="-410" />
<missing-glyph horiz-adv-x="471" />
<glyph unicode="&#xfb01;" horiz-adv-x="1306" d="M59 958v181h215v80q0 89 17 153.5t57 115t112.5 76t176.5 25.5h131v-174h-106q-107 0 -148 -50.5t-41 -145.5v-80h295v-181h-295v-958h-199v958h-215zM946 1276v242h201v-242h-201zM948 0v1139h199v-1139h-199z" />
<glyph unicode="&#xfb02;" horiz-adv-x="1413" d="M59 958v181h215v80q0 89 17 153.5t57 115t112.5 76t176.5 25.5h131v-174h-106q-107 0 -148 -50.5t-41 -145.5v-80h295v-181h-295v-958h-199v958h-215zM948 295v1294h199v-1272q0 -84 22.5 -112.5t102.5 -28.5h47v-174q-36 -4 -115 -4q-142 0 -199 67t-57 230z" />
<glyph unicode="&#xfb03;" horiz-adv-x="1978" d="M59 958v181h215v80q0 89 17 153.5t57 115t112.5 76t176.5 25.5h131v-174h-106q-107 0 -148 -50.5t-41 -145.5v-80h475v80q0 89 17 153.5t56.5 115t112 76t177.5 25.5h133v-174h-109q-107 0 -147.5 -50.5t-40.5 -145.5v-80h297v-181h-297v-958h-199v958h-475v-958h-199 v958h-215zM1620 1276v242h201v-242h-201zM1622 0v1139h197v-1139h-197z" />
<glyph unicode="&#xfb04;" horiz-adv-x="2086" d="M59 958v181h215v80q0 89 17 153.5t57 115t112.5 76t176.5 25.5h131v-174h-106q-107 0 -148 -50.5t-41 -145.5v-80h475v80q0 89 17 153.5t56.5 115t112 76t177.5 25.5h133v-174h-109q-107 0 -147.5 -50.5t-40.5 -145.5v-80h297v-181h-297v-958h-199v958h-475v-958h-199 v958h-215zM1622 295v1294h197v-1272q0 -83 23 -112t102 -29h47v-174q-32 -4 -113 -4q-142 0 -199 67t-57 230z" />
<glyph horiz-adv-x="2048" />
<glyph horiz-adv-x="2048" />
<glyph unicode="&#xd;" horiz-adv-x="2048" />
<glyph unicode=" "  horiz-adv-x="471" />
<glyph unicode="&#x09;" horiz-adv-x="471" />
<glyph unicode="&#xa0;" horiz-adv-x="471" />
<glyph unicode="!" horiz-adv-x="757" d="M254 0v266h248v-266h-248zM268 1518h219l-22 -1084h-174z" />
<glyph unicode="&#x22;" horiz-adv-x="1034" d="M195 1518h204l-12 -621h-178zM635 1518h207l-15 -621h-178z" />
<glyph unicode="#" horiz-adv-x="1542" d="M129 428v182h274l54 279h-328v184h363l88 445h190l-88 -445h297l86 445h190l-84 -445h244v-184h-278l-56 -279h334v-182h-366l-84 -428h-191l82 428h-295l-82 -428h-192l84 428h-242zM580 600h321l60 301h-322z" />
<glyph unicode="$" horiz-adv-x="1372" d="M117 152l94 147q185 -120 399 -129v541q-79 16 -133.5 31.5t-114.5 45.5t-96.5 70.5t-60 104.5t-23.5 147q0 194 102.5 292.5t317.5 113.5v139h182v-139q225 -17 373 -111l-94 -156q-107 70 -285 86v-475q60 -12 103.5 -23t94 -28.5t86 -38.5t70.5 -52t56 -69t34 -90 t13 -115q0 -200 -110 -311t-341 -129v-197h-182v195q-288 14 -485 150zM375 1118q0 -96 56.5 -144.5t178.5 -78.5v442q-128 -12 -181.5 -65.5t-53.5 -153.5zM778 172q139 15 202.5 79t63.5 179q0 111 -62.5 163t-203.5 85v-506z" />
<glyph unicode="%" horiz-adv-x="2347" d="M84 1055q0 228 106 357.5t324 129.5q214 0 319 -130t105 -357q0 -228 -105 -357t-319 -129q-218 0 -324 128.5t-106 357.5zM264 1055q0 -326 250 -326q246 0 246 326q0 321 -246 321q-250 0 -250 -321zM653 0l848 1520h189l-848 -1520h-189zM1407 467q0 226 105.5 356.5 t320.5 130.5t321.5 -130.5t106.5 -356.5q0 -229 -106 -358t-322 -129t-321 128.5t-105 358.5zM1587 467q0 -328 246 -328t246 328q0 319 -246 319t-246 -319z" />
<glyph unicode="&#x26;" horiz-adv-x="1646" d="M90 410q0 83 25.5 153t72.5 124.5t100 94.5t122 78q-78 186 -78 340q0 172 92.5 257t259.5 85q165 0 245.5 -82t80.5 -260q0 -62 -20.5 -117t-50 -94.5t-80 -79.5t-92.5 -66t-105 -59q107 -184 251 -319q63 -60 131 -115q62 88 111 217.5t100 323.5l170 -41 q-54 -208 -108 -351.5t-125 -244.5q86 -46 156.5 -60t150.5 -14h21v-180h-27q-125 0 -224.5 22.5t-209.5 88.5q-165 -131 -443 -131q-283 0 -404.5 100.5t-121.5 329.5zM285 414q0 -67 12 -111t46 -82t101.5 -56t171.5 -18q178 0 291 70q-90 78 -145 133q-161 155 -277 357 q-96 -63 -148 -131.5t-52 -161.5zM522 1200q0 -117 66 -272q120 66 183 127.5t63 144.5q0 87 -33.5 126.5t-116.5 39.5q-84 0 -123 -40.5t-39 -125.5z" />
<glyph unicode="'" horiz-adv-x="595" d="M195 1520h204l-12 -623h-178z" />
<glyph unicode="(" horiz-adv-x="1001" d="M225 616q0 166 40 327.5t105.5 289.5t139.5 226t152 163l143 -104q-375 -362 -375 -902q0 -130 24 -252t61 -215.5t88.5 -178.5t100 -143t101.5 -106l-143 -102q-80 67 -152.5 158.5t-139 215t-106 285.5t-39.5 338z" />
<glyph unicode=")" horiz-adv-x="1001" d="M199 -279q370 366 370 895q0 160 -34.5 307.5t-91.5 259.5t-117.5 193.5t-126.5 141.5l139 104q62 -52 120.5 -120t117 -163.5t101.5 -202.5t70 -242.5t27 -277.5q0 -166 -40 -327t-105.5 -286.5t-139 -222t-151.5 -161.5z" />
<glyph unicode="*" horiz-adv-x="1196" d="M133 850l338 174l-338 176l80 143l324 -204l-19 381h158l-17 -381l324 204l80 -143l-340 -176l340 -174l-80 -143l-324 202l17 -377h-158l19 375l-324 -200z" />
<glyph unicode="+" horiz-adv-x="1439" d="M211 627v190h410v408h196v-408h412v-190h-412v-408h-196v408h-410z" />
<glyph unicode="," horiz-adv-x="518" d="M129 -162q78 42 102.5 72.5t24.5 89.5h-123v270h250v-200q0 -146 -38 -211.5t-163 -124.5z" />
<glyph unicode="-" horiz-adv-x="911" d="M98 549v186h711v-186h-711z" />
<glyph unicode="." horiz-adv-x="518" d="M133 0v270h250v-270h-250z" />
<glyph unicode="/" horiz-adv-x="1054" d="M0 0l850 1518h205l-850 -1518h-205z" />
<glyph unicode="0" horiz-adv-x="1517" d="M154 760q0 149 17 264.5t58.5 215.5t110 164.5t174 101t246.5 36.5q139 0 244 -36.5t172.5 -101.5t109.5 -164.5t59 -215t17 -264.5q0 -148 -17 -263.5t-59 -215.5t-109.5 -165.5t-172.5 -102t-244 -36.5q-141 0 -246.5 37t-173.5 102t-110 165t-59 215t-17 264zM358 760 q0 -80 4.5 -144t16 -127.5t31 -111.5t50.5 -89.5t72.5 -68.5t99 -42t128.5 -15q98 0 170 29.5t115.5 79t69.5 128.5t35 163.5t9 197.5q0 114 -9 198.5t-35 162t-69.5 126t-115 77t-170.5 28.5t-171.5 -28.5t-116.5 -77t-70 -126t-35 -162t-9 -198.5z" />
<glyph unicode="1" horiz-adv-x="786" d="M72 1327v191h477v-1518h-195v1327h-282z" />
<glyph unicode="2" horiz-adv-x="1236" d="M74 0v166l508 487q98 94 148 146t93.5 112t58.5 111t15 115q0 117 -69.5 169t-235.5 52q-118 0 -228 -26t-184 -66l-88 164q105 57 225 84.5t291 27.5q247 0 367.5 -92.5t120.5 -294.5q0 -86 -18 -155.5t-64 -141.5t-105.5 -138t-160.5 -163l-398 -381h768v-176h-1044z " />
<glyph unicode="3" horiz-adv-x="1273" d="M35 123l100 160q124 -67 232.5 -98t232.5 -31q189 0 269.5 64.5t80.5 230.5q0 76 -16 126t-58 87.5t-117.5 54t-191.5 16.5h-225v178h221q193 0 268.5 53t75.5 185q0 119 -69.5 166t-241.5 47q-106 0 -218.5 -28.5t-197.5 -78.5l-106 154q107 66 248 99.5t290 33.5 q252 0 371 -82t119 -276q0 -291 -187 -348q122 -29 176 -124t54 -278q0 -105 -24 -184t-68 -131.5t-111.5 -84.5t-148 -45.5t-185.5 -13.5q-171 0 -304 34.5t-269 113.5z" />
<glyph unicode="4" horiz-adv-x="1384" d="M98 360v162l676 996h217l-672 -986h541l41 482h143v-482h273v-172h-273v-360h-186v360h-760z" />
<glyph unicode="5" horiz-adv-x="1323" d="M104 125l103 160q114 -63 214 -97t226 -34q69 0 122.5 7.5t104.5 29.5t84.5 58t53.5 96.5t20 141.5q0 99 -26.5 167t-77.5 104.5t-114 51.5t-148 15q-107 0 -184.5 -16.5t-153.5 -52.5l-168 51l39 711h921v-181h-741l-23 -399q132 66 357 66q93 0 166.5 -12.5t141.5 -47 t113 -90.5t72 -147t27 -213q0 -125 -29 -217.5t-78 -149.5t-125.5 -91t-159 -46.5t-190.5 -12.5q-170 0 -300 39.5t-247 108.5z" />
<glyph unicode="6" horiz-adv-x="1433" d="M145 627q0 164 16.5 287t56.5 225.5t105 171.5t163.5 116.5t231 69t308.5 21.5h84v-181h-90q-117 0 -210.5 -12.5t-160.5 -33.5t-117.5 -55t-82 -70t-53 -85.5t-31.5 -95t-17 -104.5q112 141 465 141q142 0 241.5 -34.5t156 -103.5t81.5 -160t25 -216q0 -128 -29 -223 t-93 -165.5t-174.5 -106.5t-266.5 -36q-314 0 -461.5 154.5t-147.5 495.5zM350 539q0 -210 102 -298.5t304 -88.5q107 0 179.5 24t112 72t56 108.5t16.5 145.5q0 84 -17.5 145.5t-58 109.5t-112.5 72.5t-176 24.5q-188 0 -297 -80t-109 -235z" />
<glyph unicode="7" horiz-adv-x="1122" d="M39 1337v181h1046v-158l-596 -1360h-208l587 1337h-829z" />
<glyph unicode="8" horiz-adv-x="1447" d="M129 426q0 159 61.5 266t188.5 142q-199 66 -199 329q0 87 26 152.5t86.5 118.5t168.5 80.5t262 27.5q124 0 219 -18.5t155.5 -51.5t99 -81.5t54 -103.5t15.5 -124q0 -125 -47.5 -211.5t-149.5 -117.5q250 -73 250 -408q0 -215 -143.5 -335t-452.5 -120 q-158 0 -273.5 32.5t-185 93.5t-102.5 142.5t-33 186.5zM330 440q0 -149 94.5 -223t298.5 -74t299.5 74t95.5 223t-95.5 223t-299.5 74t-298.5 -74t-94.5 -223zM373 1141q0 -119 80.5 -177.5t269.5 -58.5t269.5 58.5t80.5 177.5q0 117 -80.5 174t-269.5 57t-269.5 -57 t-80.5 -174z" />
<glyph unicode="9" horiz-adv-x="1433" d="M125 1008q0 128 29 223.5t93 166.5t174.5 107.5t266.5 36.5q314 0 461 -154t147 -495q0 -164 -16.5 -287t-56 -226t-104.5 -172t-163.5 -117t-231 -69.5t-308.5 -21.5h-86v176h90q118 0 212.5 13t161.5 34t117.5 56t81.5 71t52.5 86t31.5 95t17 104q-115 -141 -465 -141 q-142 0 -241.5 35.5t-156 105.5t-81.5 160.5t-25 212.5zM322 1010q0 -84 17.5 -146.5t58 -110t112 -72t174.5 -24.5q188 0 298 80.5t110 233.5q0 211 -101.5 300t-302.5 89q-107 0 -180 -24t-113 -72t-56.5 -108.5t-16.5 -145.5z" />
<glyph unicode=":" horiz-adv-x="559" d="M154 0v262h249v-262h-249zM154 877v262h249v-262h-249z" />
<glyph unicode=";" horiz-adv-x="559" d="M150 -162q78 42 102 72.5t24 89.5h-122v262h249v-192q0 -141 -38.5 -209.5t-161.5 -126.5zM154 877v262h249v-262h-249z" />
<glyph unicode="&#x3c;" horiz-adv-x="1439" d="M217 635v147l924 461v-186l-719 -348l719 -347v-192z" />
<glyph unicode="=" horiz-adv-x="1439" d="M223 399v187h996v-187h-996zM223 858v184h996v-184h-996z" />
<glyph unicode="&#x3e;" horiz-adv-x="1439" d="M299 170v192l719 345l-719 348v188l924 -463v-147z" />
<glyph unicode="?" horiz-adv-x="1380" d="M168 1423q100 55 247.5 87t293.5 32q191 0 304 -41.5t160.5 -121t47.5 -210.5q0 -77 -17.5 -135.5t-57.5 -104t-86.5 -78.5t-121.5 -73q-50 -26 -81 -45t-56 -43.5t-36.5 -46.5t-18 -57.5t-6 -73.5t4.5 -98h-194q-12 79 -8.5 143t14.5 110t42 86t73.5 72t109.5 68 q78 42 116 65t69.5 53.5t41 62t9.5 79.5q0 52 -11.5 85t-44.5 61.5t-99 41.5t-169 13q-234 0 -442 -105zM522 0v242h250v-242h-250z" />
<glyph unicode="@" horiz-adv-x="2209" d="M174 598q0 477 238.5 711.5t691.5 234.5q458 0 697 -234t239 -712q0 -156 -16 -254t-57.5 -162.5t-109 -90t-174.5 -25.5q-66 0 -115 10t-77 25t-45.5 38t-23.5 43.5t-9 46.5q-51 -80 -143 -117.5t-254 -37.5q-121 0 -207.5 38.5t-137 111t-73.5 167t-23 217.5 q0 531 449 531q159 0 243 -34t124 -110l43 133l125 -10v-766q0 -39 5 -66t20.5 -54t49 -40.5t84.5 -13.5q44 0 76 9t54.5 31.5t36 52.5t21.5 80.5t10.5 106.5t2.5 140q0 421 -203 624t-612 203q-809 0 -809 -827q0 -413 205.5 -615t621.5 -202q158 0 304 32t257 85l52 -105 q-262 -131 -611 -131q-480 0 -715 229.5t-235 706.5zM756 608q0 -180 70 -277.5t227 -97.5q168 0 246.5 86t78.5 289q0 200 -76 280.5t-249 80.5q-158 0 -227.5 -92.5t-69.5 -268.5z" />
<glyph unicode="A" horiz-adv-x="1517" d="M45 0l608 1528h211l609 -1528h-213l-125 319h-758l-125 -319h-207zM446 510h615l-307 770z" />
<glyph unicode="B" horiz-adv-x="1468" d="M172 0v1518h670q264 0 386 -91t122 -284q0 -286 -191 -346q125 -31 177.5 -121.5t52.5 -255.5q0 -229 -136.5 -324.5t-423.5 -95.5h-657zM375 186h477q171 0 249.5 59t78.5 193q0 130 -79 188t-253 58h-473v-498zM375 877h473q84 0 142.5 16.5t91 49.5t46 74t13.5 97 q0 108 -69 161.5t-224 53.5h-473v-452z" />
<glyph unicode="C" horiz-adv-x="1497" d="M84 760q0 394 197.5 588t570.5 194q341 0 549 -199l-150 -149q-161 149 -401 149q-557 0 -557 -585q0 -292 136 -439t423 -147q150 0 241.5 40t170.5 116l147 -142q-46 -46 -93.5 -79.5t-115 -65t-159 -48t-201.5 -16.5q-389 0 -573.5 197t-184.5 586z" />
<glyph unicode="D" horiz-adv-x="1558" d="M172 0v1518h508q148 0 260 -15t203 -50.5t152.5 -92t103 -142t60 -197.5t18.5 -261q0 -218 -45.5 -363.5t-148 -234t-252.5 -125.5t-374 -37h-485zM379 190h289q175 0 288.5 29.5t184 99.5t99 175t28.5 266q0 165 -25 267.5t-92.5 171t-178.5 95.5t-290 27h-303v-1131z " />
<glyph unicode="E" horiz-adv-x="1335" d="M172 0v1518h1038v-199h-831v-436h811v-197h-811v-496h840v-190h-1047z" />
<glyph unicode="F" horiz-adv-x="1257" d="M172 0v1518h1010v-199h-803v-457h784v-196h-784v-666h-207z" />
<glyph unicode="G" horiz-adv-x="1603" d="M84 760q0 402 194.5 592t571.5 190q373 0 569 -196l-147 -152q-79 71 -177 110t-245 39q-284 0 -421.5 -144t-137.5 -441q0 -309 127.5 -452.5t429.5 -143.5q140 0 232 27.5t143.5 87t71.5 139t20 198.5v43h-490v185h695v-191q0 -110 -12 -195.5t-40.5 -164.5t-79 -134.5 t-124.5 -97t-180.5 -62t-243.5 -20.5q-207 0 -353 49.5t-234.5 150t-128.5 243.5t-40 340z" />
<glyph unicode="H" horiz-adv-x="1611" d="M172 0v1518h207v-627h854v627h207v-1518h-207v686h-854v-686h-207z" />
<glyph unicode="I" horiz-adv-x="581" d="M188 0v1518h205v-1518h-205z" />
<glyph unicode="J" horiz-adv-x="847" d="M57 0v190h150q150 0 212 61t62 200v1067h205v-1076q0 -123 -29.5 -209t-89.5 -137.5t-142.5 -74.5t-195.5 -23t-172 2z" />
<glyph unicode="K" horiz-adv-x="1472" d="M172 0v1518h203v-797l715 797h237l-536 -598l610 -920h-236l-510 768l-280 -313v-455h-203z" />
<glyph unicode="L" horiz-adv-x="1218" d="M172 0v1518h207v-1328h790v-190h-997z" />
<glyph unicode="M" horiz-adv-x="1906" d="M172 0v1518h270l512 -1227l514 1227h267v-1518h-203v1171l-496 -1171h-172l-493 1169v-1169h-199z" />
<glyph unicode="N" horiz-adv-x="1619" d="M172 0v1518h225l850 -1170v1170h201v-1518h-191l-884 1214v-1214h-201z" />
<glyph unicode="O" horiz-adv-x="1718" d="M84 760q0 782 774 782t774 -782q0 -785 -774 -785t-774 785zM293 756q0 -289 137.5 -438.5t427.5 -149.5q567 0 567 588q0 289 -138 438t-429 149q-290 0 -427.5 -149t-137.5 -438z" />
<glyph unicode="P" horiz-adv-x="1474" d="M172 0v1518h682q282 0 409.5 -115.5t127.5 -353.5q0 -244 -129 -372t-414 -128h-473v-549h-203zM375 741h479q168 0 249 68.5t81 228.5q0 162 -79 224.5t-255 62.5h-475v-584z" />
<glyph unicode="Q" horiz-adv-x="1718" d="M84 760q0 404 195.5 593t578.5 189q384 0 579 -189t195 -593q0 -393 -183 -578t-546 -194q-1 -15 -1 -29q0 -91 34 -124q40 -38 172 -38h168v-178q-8 0 -73.5 -1t-94.5 -1q-167 0 -256.5 37.5t-121.5 117.5q-27 64 -27 170q0 26 2 54q-309 33 -465 217.5t-156 546.5z M293 756q0 -292 133 -440t432 -148t433 148t134 440t-134 439.5t-433 147.5t-432 -147.5t-133 -439.5z" />
<glyph unicode="R" horiz-adv-x="1499" d="M172 0v1518h676q281 0 406.5 -114.5t125.5 -344.5q0 -395 -366 -461l344 -598h-221l-338 584h-424v-584h-203zM375 774h471q165 0 245 61t80 216q0 156 -79.5 215t-251.5 59h-465v-551z" />
<glyph unicode="S" horiz-adv-x="1460" d="M74 160l104 159q240 -157 543 -157q229 0 327.5 62.5t98.5 201.5q0 40 -11 71.5t-27 54.5t-49 42.5t-61.5 31.5t-81.5 24.5t-91 19.5t-107 18q-84 14 -141.5 25.5t-122 30t-106 39.5t-82 52.5t-63 71t-36.5 93t-14 120.5q0 224 139 323t430 99q343 0 553 -139l-113 -170 q-80 54 -197.5 86.5t-242.5 32.5q-195 0 -280 -53.5t-85 -174.5q0 -42 11 -74.5t38.5 -57t57 -41t83.5 -31t99 -24t123 -22.5q61 -10 99.5 -17t91 -18.5t86 -22t75 -26t67.5 -33t55.5 -41t46.5 -51.5t32.5 -62t22 -76t6.5 -91q0 -230 -150.5 -343t-474.5 -113 q-387 0 -653 180z" />
<glyph unicode="T" horiz-adv-x="1419" d="M49 1319v199h1323v-199h-557v-1319h-209v1319h-557z" />
<glyph unicode="U" horiz-adv-x="1613" d="M162 557v961h207v-936q0 -79 10.5 -138.5t39.5 -113.5t77.5 -88t126.5 -54t184 -20q107 0 186 19.5t128.5 53t79.5 87t41 114t11 140.5v936h201v-961q0 -70 -6 -127t-24 -119t-47.5 -110t-79 -92t-116.5 -73t-162.5 -46t-213.5 -17t-213 17t-161.5 46t-115.5 73.5 t-78 92.5t-46 110t-23 118.5t-6 126.5z" />
<glyph unicode="V" horiz-adv-x="1513" d="M47 1518h217l496 -1268l491 1268h217l-606 -1528h-211z" />
<glyph unicode="W" horiz-adv-x="2217" d="M63 1518h216l368 -1182l377 1182h182l377 -1182l369 1182h202l-481 -1528h-182l-381 1190l-379 -1190h-184z" />
<glyph unicode="X" horiz-adv-x="1490" d="M74 0l555 795l-504 723h229l398 -568l387 568h229l-508 -723l559 -795h-233l-449 639l-434 -639h-229z" />
<glyph unicode="Y" horiz-adv-x="1466" d="M20 1518h226l489 -756l494 756h215l-608 -940v-578h-205v573z" />
<glyph unicode="Z" horiz-adv-x="1376" d="M86 0v164l918 1155h-883v199h1143v-181l-914 -1147h936v-190h-1200z" />
<glyph unicode="[" horiz-adv-x="974" d="M244 -338v1927h532v-182h-330v-1569h336v-176h-538z" />
<glyph unicode="\" horiz-adv-x="1054" d="M0 1518h205l850 -1518h-205z" />
<glyph unicode="]" horiz-adv-x="974" d="M195 1407v182h534v-1927h-532v176h331v1569h-333z" />
<glyph unicode="^" d="M182 1202l314 336h215l313 -336h-193l-231 207l-227 -207h-191z" />
<glyph unicode="_" horiz-adv-x="927" d="M-76 -109h1080v-161h-1080v161z" />
<glyph unicode="`" d="M229 1591h244l303 -336h-184z" />
<glyph unicode="a" horiz-adv-x="1284" d="M80 324q0 124 36.5 202.5t127 127.5t229.5 68t358 19h62q-2 67 -12.5 107.5t-40.5 72.5t-86 45t-146 13q-182 0 -336 -96l-104 155q70 47 196 87t263 40q98 0 169.5 -11t122.5 -36t83 -59t50.5 -88t25.5 -115t7 -147v-406q0 -85 18 -106t95 -21v-174q-14 -4 -82 -4 q-91 0 -131.5 28t-62.5 101q-53 -74 -155 -110.5t-280 -36.5q-96 0 -168 17.5t-117 47.5t-73 75t-38.5 94t-10.5 110zM270 338q0 -96 55 -141t195 -45q197 0 285 83t88 267v69h-51q-238 0 -359 -21.5t-167 -69.5t-46 -142z" />
<glyph unicode="b" horiz-adv-x="1343" d="M147 6v1583h199v-563q47 72 147.5 105.5t270.5 33.5q112 0 197.5 -29t140 -79.5t88.5 -126.5t47.5 -163t13.5 -196t-14.5 -195.5t-49.5 -162t-91 -126t-142 -79t-200 -28.5q-180 0 -278.5 33t-151.5 108l-37 -129zM348 563q0 -225 83.5 -315t289.5 -90q95 0 160 27.5 t101 82.5t51.5 126t15.5 169q0 100 -15 171.5t-50.5 128t-101 84.5t-161.5 28q-202 0 -287.5 -93t-85.5 -319z" />
<glyph unicode="c" horiz-adv-x="1165" d="M92 571q0 111 15.5 197.5t54.5 163t102 126.5t161.5 78.5t229.5 28.5q271 0 424 -170l-145 -137q-111 115 -279 115q-103 0 -174.5 -27t-112 -81.5t-58 -126t-17.5 -171.5t17 -172t57 -127t111.5 -82.5t176.5 -27.5q89 0 155.5 27.5t133.5 88.5l133 -127 q-93 -87 -189.5 -127t-240.5 -40q-128 0 -225 28t-159 78t-101 125.5t-54.5 162.5t-15.5 197z" />
<glyph unicode="d" horiz-adv-x="1343" d="M92 575q0 108 14.5 194.5t49.5 161.5t91 125t142 78.5t199 28.5q175 0 270 -33t137 -104v563h201v-1581l-154 -14l-22 133q-55 -77 -156.5 -112t-281.5 -35q-112 0 -197 29t-140 79.5t-90 126.5t-49 163.5t-14 196.5zM295 575q0 -100 15 -172t51.5 -128.5t102 -84.5 t161.5 -28q201 0 285.5 94t84.5 319q0 224 -82 313t-288 89q-96 0 -161.5 -27t-102 -82t-51.5 -125t-15 -168z" />
<glyph unicode="e" horiz-adv-x="1228" d="M92 571q0 105 13.5 188.5t51 161.5t98.5 130t160 83t232 31q86 0 155.5 -14.5t118 -41.5t85.5 -65t58.5 -84.5t36 -101t19 -114t6.5 -122.5l2 -58q0 -35 -2 -70h-841q5 -83 23 -142t58 -107t111 -71.5t174 -23.5q128 0 208 28t155 84l106 -139q-95 -74 -204.5 -110 t-264.5 -36q-114 0 -203 20.5t-149.5 60.5t-102 91.5t-64 121.5t-31.5 141t-9 159zM287 670h651q-3 47 -5.5 75t-10.5 66t-20 60.5t-34 48t-52 38.5t-74 22t-101 9q-77 0 -135 -15t-97 -41.5t-65 -67t-39 -87.5t-18 -108z" />
<glyph unicode="f" horiz-adv-x="819" d="M59 958v181h215v80q0 89 17 153.5t57 115t112.5 76t176.5 25.5h131v-174h-106q-107 0 -148 -50.5t-41 -145.5v-80h295v-181h-295v-958h-199v958h-215z" />
<glyph unicode="g" horiz-adv-x="1251" d="M55 -84q0 234 217 279q-63 43 -63 137q0 87 51 157q-139 87 -139 293q0 194 116 288.5t367 94.5q49 0 74 -2l448 64v-164h-184q148 -80 148 -281q0 -189 -117 -277.5t-369 -88.5q-111 0 -188 14q-27 -34 -27 -70q0 -50 43.5 -63.5t183.5 -13.5q217 0 336 -28t170.5 -92 t51.5 -181q0 -185 -132.5 -267t-443.5 -82q-120 0 -204 7.5t-151.5 26t-107 51t-60 81t-20.5 117.5zM256 -51q0 -89 78.5 -123.5t269.5 -34.5q146 0 228.5 21.5t111.5 59t29 99.5q0 87 -78 115.5t-291 28.5q-90 0 -154.5 -8.5t-101.5 -22.5t-58 -36.5t-27.5 -45t-6.5 -53.5z M313 782q0 -107 67 -154.5t224 -47.5q156 0 222.5 47.5t66.5 154.5t-70.5 155t-218.5 48q-158 0 -224.5 -47t-66.5 -156z" />
<glyph unicode="h" horiz-adv-x="1294" d="M147 0v1589h199v-549q85 125 395 125q106 0 181 -23t119 -61t69 -101t33 -128t8 -158v-694h-199v655q0 46 -1.5 76t-7.5 66t-17.5 59t-31.5 46.5t-49 37t-71 21.5t-96 8q-102 0 -169.5 -24t-101.5 -72.5t-46.5 -104.5t-12.5 -137v-631h-201z" />
<glyph unicode="i" horiz-adv-x="516" d="M158 1276v242h200v-242h-200zM160 0v1139h196v-1139h-196z" />
<glyph unicode="j" horiz-adv-x="516" d="M4 -180h16q89 1 114.5 34t25.5 134v1151h196v-1149q0 -100 -13 -161t-49 -101.5t-95.5 -56t-157.5 -15.5h-37v164zM158 1276v242h200v-242h-200z" />
<glyph unicode="k" horiz-adv-x="1142" d="M147 0v1589h197v-1036l504 586h221l-403 -473l444 -666h-221l-357 520l-188 -215v-305h-197z" />
<glyph unicode="l" horiz-adv-x="624" d="M160 295v1294h196v-1272q0 -83 23.5 -112t103.5 -29h45v-174q-36 -4 -112 -4q-142 0 -199 67t-57 230z" />
<glyph unicode="m" horiz-adv-x="2052" d="M147 0v1128l158 11l17 -109q82 135 407 135q116 0 190.5 -19t107.5 -48.5t50 -75.5q92 143 436 143q76 0 135.5 -12t101.5 -32t71.5 -53.5t47.5 -69.5t28 -88t13 -101t3 -115v-694h-201v655q0 37 -0.5 59.5t-3 54t-7.5 50t-14 42.5t-22.5 38t-33 29t-45 23t-60 13 t-76.5 5q-82 0 -141 -17t-94 -44.5t-54.5 -73t-26 -92t-6.5 -111.5v-631h-196v655q0 37 -0.5 60t-3 53.5t-8 50t-14.5 43t-22.5 37.5t-33.5 29t-45.5 23t-60 13t-76.5 5q-82 0 -141 -17t-93.5 -44.5t-54 -73t-25.5 -92t-6 -111.5v-631h-201z" />
<glyph unicode="n" horiz-adv-x="1294" d="M147 0v1128l158 11l17 -109q99 135 419 135q106 0 181 -23t119 -61t69 -101t33 -128t8 -158v-694h-199v655q0 46 -1.5 76t-7.5 66t-17.5 59t-31.5 46.5t-49 37t-71 21.5t-96 8q-102 0 -169.5 -24t-101.5 -72.5t-46.5 -104.5t-12.5 -137v-631h-201z" />
<glyph unicode="o" horiz-adv-x="1308" d="M92 571q0 299 132.5 446.5t428.5 147.5t430 -147.5t134 -446.5t-134 -446.5t-430 -147.5t-428.5 147.5t-132.5 446.5zM293 567q0 -205 83 -307t277 -102t277.5 102t83.5 307t-83.5 306.5t-277.5 101.5t-277 -101.5t-83 -306.5z" />
<glyph unicode="p" horiz-adv-x="1343" d="M147 -338v1466l158 11l17 -121q47 74 151.5 110.5t290.5 36.5q113 0 197.5 -28.5t139.5 -79t89 -126.5t47.5 -163t13.5 -197q0 -108 -14 -194.5t-49 -162t-90.5 -125.5t-141.5 -78.5t-200 -28.5q-175 0 -269.5 33t-138.5 104v-457h-201zM348 565q0 -225 83.5 -314 t289.5 -89q95 0 160 27t101 81.5t51.5 125.5t15.5 169q0 99 -15 170.5t-50.5 127.5t-101 84t-161.5 28q-203 0 -288 -92t-85 -318z" />
<glyph unicode="q" horiz-adv-x="1343" d="M92 573q0 109 14.5 196t49.5 162.5t91 126t142 79t199 28.5q181 0 279.5 -32.5t152.5 -104.5l37 125l139 -12v-1479h-201v453q-57 -74 -150 -104.5t-263 -30.5q-112 0 -197 29t-140 79.5t-90 126t-49 162.5t-14 196zM295 573q0 -99 15 -170.5t51.5 -128t102 -84.5 t161.5 -28q201 0 285.5 93.5t84.5 317.5q0 225 -82 314.5t-288 89.5q-96 0 -161.5 -27t-102 -82t-51.5 -125.5t-15 -169.5z" />
<glyph unicode="r" horiz-adv-x="759" d="M147 0v1128l158 11l21 -140q35 64 137.5 107.5t247.5 46.5v-201q-195 -1 -279 -92.5t-84 -259.5v-600h-201z" />
<glyph unicode="s" horiz-adv-x="1097" d="M51 113l103 155q178 -114 401 -114q152 0 213 34.5t61 133.5q0 77 -55 107t-219 58q-67 12 -110 21t-95 24t-84 32t-65 42.5t-51 58t-29.5 76.5t-11.5 99q0 161 104.5 243t341.5 82q261 0 434 -100l-94 -164q-146 80 -336 80q-142 0 -197 -35t-55 -106q0 -76 54 -108 t202 -58q52 -9 82 -15t73.5 -15.5t68.5 -18t58.5 -21t53 -26t42.5 -31.5t35.5 -39.5t24.5 -48t16.5 -59t4.5 -70.5q0 -192 -111.5 -271t-367.5 -79q-291 0 -492 133z" />
<glyph unicode="t" horiz-adv-x="856" d="M59 958v181h207l35 323l158 31v-354h301v-181h-301v-620q0 -43 4.5 -68.5t20 -49t50 -34t89.5 -10.5h137v-176q-25 -2 -172 -2q-100 0 -165 18.5t-100.5 60t-49 96t-13.5 138.5v647h-201z" />
<glyph unicode="u" horiz-adv-x="1280" d="M141 487v652h199v-656q0 -38 0.5 -58.5t3 -54t8 -51.5t16 -43.5t25.5 -39.5t38 -30.5t52.5 -24.5t70 -13.5t89.5 -5.5q63 0 111.5 9.5t80 21.5t53 39t32.5 47.5t16.5 62t6.5 67t1 76.5v4v650h195v-645q0 -78 -4.5 -135t-17.5 -113.5t-35.5 -95.5t-59.5 -73t-89 -54 t-124.5 -31.5t-165.5 -11.5t-165.5 11t-125.5 31t-90.5 54t-61 72.5t-36.5 94t-18 112t-5 132.5z" />
<glyph unicode="v" horiz-adv-x="1150" d="M14 1139h213l351 -912l350 912h207l-453 -1149h-215z" />
<glyph unicode="w" horiz-adv-x="1818" d="M27 1139h209l294 -860l283 860h197l282 -858l297 858h203l-401 -1149h-199l-283 848l-282 -848h-201z" />
<glyph unicode="x" horiz-adv-x="1138" d="M33 0l424 594l-387 545h221l284 -400l281 400h215l-391 -547l426 -592h-223l-322 451l-311 -451h-217z" />
<glyph unicode="y" horiz-adv-x="1114" d="M14 1139h213l334 -889l332 889h209l-484 -1235q-51 -135 -129 -191.5t-227 -56.5q-79 0 -104 2v162h88q83 0 119.5 21.5t56.5 82.5l35 88z" />
<glyph unicode="z" horiz-adv-x="1048" d="M61 0v145l650 813h-617v181h877v-150l-652 -819h674v-170h-932z" />
<glyph unicode="{" horiz-adv-x="1050" d="M160 539v172q149 0 205.5 19.5t56.5 88.5q0 48 -55.5 239t-55.5 259q0 139 85 205.5t278 66.5h184v-182h-143q-115 0 -157 -32t-42 -111q0 -41 52.5 -227.5t52.5 -252.5q0 -122 -121 -157q121 -40 121 -160q0 -66 -52.5 -254t-52.5 -229q0 -80 42 -113t157 -33h143v-176 h-184q-193 0 -278 66.5t-85 205.5q0 68 55.5 259.5t55.5 240.5q0 64 -56 84.5t-206 20.5z" />
<glyph unicode="|" horiz-adv-x="692" d="M244 -338v1927h202v-1927h-202z" />
<glyph unicode="}" horiz-adv-x="1050" d="M193 -162h145q115 0 157 33t42 113q0 41 -53.5 229t-53.5 254q0 121 121 160q-121 38 -121 157q0 66 53.5 252.5t53.5 227.5q0 79 -42 111t-157 32h-145v182h186q194 0 277 -66t83 -206q0 -68 -55 -259t-55 -239q0 -65 55.5 -85.5t206.5 -20.5v-172q-149 0 -205.5 -19.5 t-56.5 -87.5q0 -49 55 -240.5t55 -259.5q0 -140 -83 -206t-277 -66h-186v176z" />
<glyph unicode="~" d="M184 934q139 170 275 170q47 0 89.5 -16t68 -35.5t59.5 -35.5t67 -16q66 0 164 113l117 -94q-147 -184 -276 -184q-43 0 -84.5 16t-69 35t-63.5 35t-68 16q-36 0 -77.5 -26t-78.5 -74z" />
<glyph unicode="&#xa1;" horiz-adv-x="757" d="M254 1251v267h250v-267h-250zM268 0l23 1083h176l20 -1083h-219z" />
<glyph unicode="&#xa2;" horiz-adv-x="1159" d="M96 571q0 126 21.5 222t71.5 175.5t140.5 126.5t221.5 60v131h188v-129q203 -21 334 -162l-141 -133q-96 92 -205 109v-813q61 9 110 35.5t105 76.5l131 -123q-78 -70 -155 -107.5t-179 -47.5v-185h-188v183q-130 12 -220.5 58t-141 124.5t-72 174.5t-21.5 224zM289 567 q0 -179 62 -281t212 -126v811q-149 -24 -211.5 -125t-62.5 -279z" />
<glyph unicode="&#xa3;" horiz-adv-x="1284" d="M66 700v164h194q-43 169 -43 277q0 94 24 165t77 126t144.5 83.5t219.5 28.5q227 0 416 -80l-78 -174q-140 66 -342 66q-147 0 -205.5 -61t-58.5 -179q0 -84 41 -252h446v-164h-407q49 -198 49 -303q0 -92 -17 -159q167 -76 324 -76q58 0 93.5 10.5t55 36.5t25.5 60t6 91 v54h174v-60q0 -203 -77 -286.5t-273 -83.5q-226 0 -418 102q-106 -86 -356 -86v172q66 0 112.5 5t78 18t49.5 28.5t27.5 43.5t12 55t2.5 71q0 92 -57 307h-239z" />
<glyph unicode="&#xa5;" horiz-adv-x="1310" d="M29 1518h211l415 -689l416 689h211l-528 -856v-19h417v-170h-417v-149h417v-168h-417v-156h-197v156h-418v168h418v149h-418v170h418v14z" />
<glyph unicode="&#xa6;" horiz-adv-x="692" d="M244 -338v803h202v-803h-202zM244 786v803h202v-803h-202z" />
<glyph unicode="&#xa7;" horiz-adv-x="1146" d="M115 758q0 138 85 214t255 93v94q0 58 5 101t18 88t38.5 76.5t65 57t99 38t138.5 12.5q93 0 133 -4v-172h-110q-62 0 -101.5 -13.5t-58 -42.5t-24 -59.5t-5.5 -79.5v-94q190 -12 284.5 -87.5t94.5 -221.5q0 -138 -88 -212t-264 -89v-101q0 -69 -6.5 -119t-29 -100.5 t-61 -82t-106.5 -51t-162 -19.5q-91 0 -131 4v166h111q62 0 100.5 13.5t56.5 42.5t23.5 59t5.5 79v107q-185 14 -275.5 88t-90.5 215zM281 754q0 -87 69.5 -125.5t220.5 -38.5q153 0 225 38.5t72 125.5q0 88 -71.5 126t-225.5 38q-151 0 -220.5 -38t-69.5 -126z" />
<glyph unicode="&#xa8;" d="M293 1262v229h182v-229h-182zM735 1262v229h180v-229h-180z" />
<glyph unicode="&#xa9;" horiz-adv-x="1691" d="M84 760q0 137 29.5 256t91 216.5t151 166.5t213 107t273.5 38q187 0 333.5 -58t239.5 -163.5t141 -248t48 -314.5t-48 -314.5t-141 -248t-239.5 -164t-333.5 -58.5q-186 0 -332 58.5t-238.5 164t-140 248t-47.5 314.5zM174 760q0 -155 39.5 -280.5t119 -219.5t209 -145.5 t300.5 -51.5t301.5 51.5t211 145.5t121 219.5t40.5 280.5t-40.5 280.5t-121 219.5t-211 145t-301.5 51t-300.5 -51t-209 -145t-119 -219.5t-39.5 -280.5zM356 768q0 258 135 387t373 129q228 0 363 -129l-94 -100q-112 98 -271 98q-175 0 -269.5 -98t-94.5 -287 q0 -190 92.5 -288.5t273.5 -98.5q172 0 279 100l90 -92q-139 -139 -375 -139q-248 0 -375 132t-127 386z" />
<glyph unicode="&#xaa;" horiz-adv-x="1220" d="M129 860q0 191 142.5 264.5t469.5 73.5h43q-2 72 -18.5 109.5t-64.5 58t-140 20.5q-76 0 -147 -22.5t-119 -52.5l-88 127q54 38 156.5 70t214.5 32q95 0 159.5 -14t106 -40t64 -73t30.5 -103t8 -141v-321q0 -70 15 -87.5t79 -17.5v-149q-5 0 -24.5 -1t-38.5 -1 q-92 0 -129 26.5t-47 112.5q-41 -80 -119.5 -116.5t-228.5 -36.5q-324 0 -324 282zM215 287v151h735v-151h-735zM289 872q0 -151 200 -151q149 0 222 68.5t73 216.5v59h-32q-138 0 -224 -8.5t-141 -31t-76.5 -59t-21.5 -94.5z" />
<glyph unicode="&#xab;" horiz-adv-x="1435" d="M199 567l309 572h176l-297 -572l297 -567h-176zM698 567l310 572h178l-295 -572l295 -567h-178z" />
<glyph unicode="&#xac;" horiz-adv-x="1439" d="M211 631v182h1018v-592h-201v410h-817z" />
<glyph unicode="&#xad;" horiz-adv-x="911" d="M98 549v186h711v-186h-711z" />
<glyph unicode="&#xae;" horiz-adv-x="1691" d="M84 760q0 137 29.5 256t91 216.5t151 166.5t213 107t273.5 38q187 0 333.5 -58t239.5 -163.5t141 -248t48 -314.5t-48 -314.5t-141 -248t-239.5 -164t-333.5 -58.5q-186 0 -332 58.5t-238.5 164t-140 248t-47.5 314.5zM174 760q0 -155 39.5 -280.5t119 -219.5t209 -145.5 t300.5 -51.5t301.5 51.5t211 145.5t121 219.5t40.5 280.5t-40.5 280.5t-121 219.5t-211 145t-301.5 51t-300.5 -51t-209 -145t-119 -219.5t-39.5 -280.5zM477 262v987h438q189 0 264.5 -72.5t75.5 -222.5q0 -128 -53.5 -199.5t-181.5 -92.5l233 -400h-141l-223 391h-281 v-391h-131zM608 770h305q111 0 161 39.5t50 140.5t-49 139.5t-164 38.5h-303v-358z" />
<glyph unicode="&#xaf;" d="M219 1243v170h770v-170h-770z" />
<glyph unicode="&#xb0;" horiz-adv-x="1165" d="M125 1053q0 223 112.5 356t344.5 133t345 -133t113 -356q0 -108 -26.5 -195.5t-80.5 -154.5t-143.5 -103.5t-207.5 -36.5t-207.5 36.5t-143 103.5t-80 154.5t-26.5 195.5zM289 1049q0 -328 293 -328q154 0 224.5 87t70.5 241q0 152 -70.5 239.5t-224.5 87.5 q-153 0 -223 -87.5t-70 -239.5z" />
<glyph unicode="&#xb1;" horiz-adv-x="1439" d="M211 29v186h1018v-186h-1018zM211 627v190h410v408h196v-408h412v-190h-412v-408h-196v408h-410z" />
<glyph unicode="&#xb2;" horiz-adv-x="942" d="M121 1462q137 70 334 70q163 0 242 -59.5t79 -190.5q0 -57 -11 -100t-43 -89.5t-67.5 -84t-105.5 -105.5l-209 -201h446v-131h-657v117l301 285q122 115 156.5 166t34.5 127q0 67 -42.5 99t-142.5 32q-143 0 -246 -56z" />
<glyph unicode="&#xb3;" horiz-adv-x="978" d="M102 653l80 117q132 -76 279 -76q116 0 163.5 35.5t47.5 132.5q0 88 -48 124t-184 36h-141v127h137q119 0 163 26t44 101q0 68 -42 93.5t-144 25.5q-146 0 -258 -64l-76 117q67 41 161 63.5t193 22.5q172 0 249 -54.5t77 -172.5q0 -86 -31 -137t-98 -74q81 -22 118 -82.5 t37 -167.5q0 -155 -85.5 -221t-270.5 -66q-113 0 -198.5 22t-172.5 72z" />
<glyph unicode="&#xb4;" d="M432 1255l303 336h244l-363 -336h-184z" />
<glyph unicode="&#xb5;" horiz-adv-x="1298" d="M147 -338v1477h199v-652q0 -65 4.5 -108t20.5 -87.5t45 -70.5t80.5 -42.5t124.5 -16.5q82 0 141.5 17.5t95 46.5t56 75.5t27.5 94t7 112.5v631h199v-1131l-152 -14l-22 125q-46 -64 -149 -103t-263 -39q-140 0 -227 41v-356h-187z" />
<glyph unicode="&#xb6;" horiz-adv-x="1300" d="M104 1049q0 121 26.5 205.5t88.5 145t166.5 89.5t257.5 29h473v-1518h-188v565h-230v-565h-188v571q-224 27 -315 143.5t-91 334.5zM305 1038q0 -166 76 -235.5t254 -69.5h293v600h-289q-185 0 -259.5 -64t-74.5 -231z" />
<glyph unicode="&#xb7;" horiz-adv-x="518" d="M133 561v275h250v-275h-250z" />
<glyph unicode="&#xb8;" d="M369 -414l55 105q89 -47 184 -47q88 0 121 26t33 74q0 55 -42.5 73.5t-146.5 12.5l-49 35l29 149h121l-19 -104q54 3 92 -2t75.5 -21.5t57 -55.5t19.5 -99q0 -102 -68 -154.5t-215 -52.5q-138 0 -247 61z" />
<glyph unicode="&#xb9;" horiz-adv-x="696" d="M125 1378v140h340v-947h-158v807h-182z" />
<glyph unicode="&#xba;" horiz-adv-x="1222" d="M158 1063q0 238 111 358.5t343 120.5q453 0 453 -479q0 -481 -453 -481q-454 0 -454 481zM215 283v155h793v-155h-793zM326 1059q0 -324 286 -324q285 0 285 324q0 323 -285 323q-286 0 -286 -323z" />
<glyph unicode="&#xbb;" horiz-adv-x="1435" d="M252 0l295 569l-295 570h176l309 -570l-309 -569h-176zM752 0l295 569l-295 570h178l309 -570l-309 -569h-178z" />
<glyph unicode="&#xbc;" horiz-adv-x="1878" d="M104 1372v146h347v-951h-164v805h-183zM381 0l848 1518h178l-846 -1518h-180zM1026 207v123l422 620h174l-416 -610h287l31 240h123v-240h153v-133h-153v-207h-154v207h-467z" />
<glyph unicode="&#xbd;" horiz-adv-x="2009" d="M104 1372v146h347v-951h-164v805h-183zM381 0l848 1518h178l-846 -1518h-180zM1194 891q143 70 336 70q163 0 242 -60t79 -194q0 -56 -10.5 -98t-42.5 -88t-67 -84t-107 -107l-201 -195h428v-135h-647v121l299 282q129 124 161 169t32 118q0 66 -42.5 97.5t-142.5 31.5 q-133 0 -245 -55z" />
<glyph unicode="&#xbe;" horiz-adv-x="2093" d="M76 659l86 123q134 -77 272 -77q117 0 164 33.5t47 129.5q0 87 -47 121.5t-182 34.5h-142v135h138q119 0 162.5 25t43.5 98q0 66 -43 91.5t-145 25.5q-145 0 -254 -66l-80 123q139 86 357 86q172 0 247.5 -54.5t75.5 -172.5q0 -86 -33 -137t-100 -76q162 -41 162 -250 q0 -155 -86 -222t-270 -67q-113 0 -198 22.5t-175 73.5zM598 0l846 1518h178l-848 -1518h-176zM1241 207v123l420 620h176l-416 -610h289l29 240h123v-240h151v-133h-151v-207h-154v207h-467z" />
<glyph unicode="&#xbf;" horiz-adv-x="1380" d="M158 354q0 77 17.5 135t57 103.5t86.5 78.5t121 72q50 27 81 46.5t56 44t36.5 46.5t18 57.5t6 73.5t-4.5 97h194q9 -70 10 -122t-7 -97.5t-24.5 -79t-46 -65t-68.5 -58t-95 -55.5q-77 -41 -115 -65t-69 -54.5t-40.5 -62t-9.5 -78.5q0 -52 11 -85.5t44 -62t98.5 -42 t168.5 -13.5q239 0 442 104l84 -174q-100 -55 -246.5 -86.5t-293.5 -31.5q-191 0 -304 41.5t-160.5 121.5t-47.5 211zM606 1280v242h250v-242h-250z" />
<glyph unicode="&#xc0;" horiz-adv-x="1519" d="M45 0l608 1528h211l609 -1528h-213l-125 319h-758l-125 -319h-207zM381 1942h244l303 -336h-185zM446 510h615l-307 770z" />
<glyph unicode="&#xc1;" horiz-adv-x="1519" d="M45 0l608 1528h211l609 -1528h-213l-125 319h-758l-125 -319h-207zM446 510h615l-307 770zM584 1606l303 336h243l-362 -336h-184z" />
<glyph unicode="&#xc2;" horiz-adv-x="1519" d="M45 0l608 1528h211l609 -1528h-213l-125 319h-758l-125 -319h-207zM334 1606l313 336h215l314 -336h-193l-231 206l-228 -206h-190zM446 510h615l-307 770z" />
<glyph unicode="&#xc3;" horiz-adv-x="1519" d="M45 0l608 1528h211l609 -1528h-213l-125 319h-758l-125 -319h-207zM336 1706q139 170 274 170q47 0 89.5 -16t68.5 -35t60 -35t67 -16q67 0 164 112l117 -94q-147 -184 -277 -184q-43 0 -84.5 16t-69 35t-63.5 35t-68 16q-78 0 -155 -100zM446 510h615l-307 770z" />
<glyph unicode="&#xc4;" horiz-adv-x="1519" d="M45 0l608 1528h211l609 -1528h-213l-125 319h-758l-125 -319h-207zM444 1612v229h183v-229h-183zM446 510h615l-307 770zM887 1612v229h180v-229h-180z" />
<glyph unicode="&#xc5;" horiz-adv-x="1519" d="M45 0l571 1434q-114 64 -114 231q0 118 63.5 191t192.5 73q126 0 192 -73.5t66 -190.5q0 -77 -29 -137.5t-86 -91.5l574 -1436h-211l-127 317h-762l-123 -317h-207zM449 508h614l-307 772zM610 1665q0 -70 36.5 -112t111.5 -42q76 0 111.5 41.5t35.5 112.5t-36 113.5 t-111 42.5q-74 0 -111 -43t-37 -113z" />
<glyph unicode="&#xc6;" horiz-adv-x="2234" d="M31 0l954 1518h1126v-199h-833v-440h813v-191h-813v-498h842v-190h-1041v319h-639l-204 -319h-205zM545 498h534v835z" />
<glyph unicode="&#xc7;" horiz-adv-x="1497" d="M84 760q0 394 197.5 588t570.5 194q341 0 549 -199l-150 -149q-161 149 -401 149q-557 0 -557 -585q0 -292 136 -439t423 -147q150 0 241.5 40t170.5 116l147 -142q-46 -46 -93.5 -79.5t-115 -65t-159 -48t-201.5 -16.5h-33l-12 -67q42 2 73.5 0t65.5 -12t55 -29 t35 -53.5t14 -83.5q0 -103 -67.5 -155t-214.5 -52q-139 0 -248 61l55 105q89 -47 185 -47q88 0 120.5 26t32.5 74q0 55 -42 73.5t-146 12.5l-49 35l22 121q-309 36 -456.5 230t-147.5 544z" />
<glyph unicode="&#xc8;" horiz-adv-x="1335" d="M172 0v1518h1038v-199h-831v-436h811v-197h-811v-496h840v-190h-1047zM289 1942h243l304 -336h-185z" />
<glyph unicode="&#xc9;" horiz-adv-x="1335" d="M172 0v1518h1038v-199h-831v-436h811v-197h-811v-496h840v-190h-1047zM492 1606l303 336h243l-362 -336h-184z" />
<glyph unicode="&#xca;" horiz-adv-x="1335" d="M172 0v1518h1038v-199h-831v-436h811v-197h-811v-496h840v-190h-1047zM242 1606l313 336h215l313 -336h-192l-232 206l-227 -206h-190z" />
<glyph unicode="&#xcb;" horiz-adv-x="1335" d="M172 0v1518h1038v-199h-831v-436h811v-197h-811v-496h840v-190h-1047zM352 1612v229h183v-229h-183zM795 1612v229h180v-229h-180z" />
<glyph unicode="&#xcc;" horiz-adv-x="581" d="M-127 1939h250l270 -333h-188zM188 0v1518h205v-1518h-205z" />
<glyph unicode="&#xcd;" horiz-adv-x="581" d="M188 0v1518h205v-1518h-205zM188 1606l269 333h250l-330 -333h-189z" />
<glyph unicode="&#xce;" horiz-adv-x="581" d="M-86 1606l270 333h211l271 -333h-195l-184 211l-183 -211h-190zM188 0v1518h205v-1518h-205z" />
<glyph unicode="&#xcf;" horiz-adv-x="581" d="M-16 1612v229h182v-229h-182zM188 0v1518h205v-1518h-205zM426 1612v229h180v-229h-180z" />
<glyph unicode="&#xd0;" horiz-adv-x="1558" d="M0 694v172h172v652h508q148 0 260 -15t203 -50.5t152.5 -92t103 -142t60 -197.5t18.5 -261q0 -217 -47 -363t-150.5 -234.5t-253 -125.5t-369.5 -37h-485v694h-172zM379 190h289q175 0 288.5 29.5t184 99.5t99 175t28.5 266q0 165 -25 267.5t-92.5 171t-178.5 95.5 t-290 27h-303v-455h328v-172h-328v-504z" />
<glyph unicode="&#xd1;" horiz-adv-x="1619" d="M172 0v1518h225l850 -1170v1170h201v-1518h-191l-884 1214v-1214h-201zM385 1706q139 170 274 170q47 0 89.5 -16t68.5 -35t60 -35t67 -16q67 0 164 112l117 -94q-147 -184 -277 -184q-54 0 -104 25.5t-95 51t-85 25.5q-36 0 -77.5 -26t-78.5 -74z" />
<glyph unicode="&#xd2;" horiz-adv-x="1718" d="M84 760q0 782 774 782t774 -782q0 -785 -774 -785t-774 785zM293 756q0 -289 137.5 -438.5t427.5 -149.5q567 0 567 588q0 289 -138 438t-429 149q-290 0 -427.5 -149t-137.5 -438zM481 1942h244l303 -336h-184z" />
<glyph unicode="&#xd3;" horiz-adv-x="1718" d="M84 760q0 782 774 782t774 -782q0 -785 -774 -785t-774 785zM293 756q0 -289 137.5 -438.5t427.5 -149.5q567 0 567 588q0 289 -138 438t-429 149q-290 0 -427.5 -149t-137.5 -438zM684 1606l303 336h244l-363 -336h-184z" />
<glyph unicode="&#xd4;" horiz-adv-x="1718" d="M84 760q0 782 774 782t774 -782q0 -785 -774 -785t-774 785zM293 756q0 -289 137.5 -438.5t427.5 -149.5q567 0 567 588q0 289 -138 438t-429 149q-290 0 -427.5 -149t-137.5 -438zM434 1606l314 336h215l313 -336h-193l-231 206l-227 -206h-191z" />
<glyph unicode="&#xd5;" horiz-adv-x="1718" d="M84 760q0 782 774 782t774 -782q0 -785 -774 -785t-774 785zM293 756q0 -289 137.5 -438.5t427.5 -149.5q567 0 567 588q0 289 -138 438t-429 149q-290 0 -427.5 -149t-137.5 -438zM436 1706q139 170 275 170q47 0 89.5 -16t68 -35t59.5 -35t67 -16q67 0 164 112l117 -94 q-147 -184 -277 -184q-54 0 -104 25.5t-95 51t-85 25.5q-36 0 -77.5 -26t-78.5 -74z" />
<glyph unicode="&#xd6;" horiz-adv-x="1718" d="M84 760q0 782 774 782t774 -782q0 -785 -774 -785t-774 785zM293 756q0 -289 137.5 -438.5t427.5 -149.5q567 0 567 588q0 289 -138 438t-429 149q-290 0 -427.5 -149t-137.5 -438zM545 1612v229h182v-229h-182zM987 1612v229h180v-229h-180z" />
<glyph unicode="&#xd7;" horiz-adv-x="1439" d="M276 401l320 320l-320 319l123 129l322 -321l317 321l123 -129l-319 -319l319 -318l-123 -127l-317 320l-324 -320z" />
<glyph unicode="&#xd8;" horiz-adv-x="1718" d="M84 760q0 404 195.5 593t578.5 189q174 0 311 -41l60 103h196l-96 -168q303 -178 303 -676q0 -406 -195 -595.5t-579 -189.5q-193 0 -332 45l-59 -104h-199l101 176q-285 185 -285 668zM287 756q0 -355 188 -494l602 1061q-106 27 -219 27q-302 0 -436.5 -149.5 t-134.5 -444.5zM616 193q105 -31 242 -31q303 0 438.5 149.5t135.5 444.5q0 370 -209 506z" />
<glyph unicode="&#xd9;" horiz-adv-x="1613" d="M162 557v961h207v-936q0 -79 10.5 -138.5t39.5 -113.5t77.5 -88t126.5 -54t184 -20q107 0 186 19.5t128.5 53t79.5 87t41 114t11 140.5v936h201v-961q0 -70 -6 -127t-24 -119t-47.5 -110t-79 -92t-116.5 -73t-162.5 -46t-213.5 -17t-213 17t-161.5 46t-115.5 73.5 t-78 92.5t-46 110t-23 118.5t-6 126.5zM428 1942h244l303 -336h-184z" />
<glyph unicode="&#xda;" horiz-adv-x="1613" d="M162 557v961h207v-936q0 -79 10.5 -138.5t39.5 -113.5t77.5 -88t126.5 -54t184 -20q107 0 186 19.5t128.5 53t79.5 87t41 114t11 140.5v936h201v-961q0 -70 -6 -127t-24 -119t-47.5 -110t-79 -92t-116.5 -73t-162.5 -46t-213.5 -17t-213 17t-161.5 46t-115.5 73.5 t-78 92.5t-46 110t-23 118.5t-6 126.5zM631 1606l303 336h244l-363 -336h-184z" />
<glyph unicode="&#xdb;" horiz-adv-x="1613" d="M162 557v961h207v-936q0 -79 10.5 -138.5t39.5 -113.5t77.5 -88t126.5 -54t184 -20q107 0 186 19.5t128.5 53t79.5 87t41 114t11 140.5v936h201v-961q0 -70 -6 -127t-24 -119t-47.5 -110t-79 -92t-116.5 -73t-162.5 -46t-213.5 -17t-213 17t-161.5 46t-115.5 73.5 t-78 92.5t-46 110t-23 118.5t-6 126.5zM381 1606l313 336h215l314 -336h-193l-231 206l-228 -206h-190z" />
<glyph unicode="&#xdc;" horiz-adv-x="1613" d="M162 557v961h207v-936q0 -79 10.5 -138.5t39.5 -113.5t77.5 -88t126.5 -54t184 -20q107 0 186 19.5t128.5 53t79.5 87t41 114t11 140.5v936h201v-961q0 -70 -6 -127t-24 -119t-47.5 -110t-79 -92t-116.5 -73t-162.5 -46t-213.5 -17t-213 17t-161.5 46t-115.5 73.5 t-78 92.5t-46 110t-23 118.5t-6 126.5zM492 1612v229h182v-229h-182zM934 1612v229h180v-229h-180z" />
<glyph unicode="&#xdd;" horiz-adv-x="1466" d="M20 1518h226l489 -756l494 756h215l-608 -940v-578h-205v573zM557 1606l303 336h244l-363 -336h-184z" />
<glyph unicode="&#xde;" horiz-adv-x="1474" d="M172 0v1518h203v-236h479q153 0 257.5 -29t166 -90.5t87.5 -146.5t26 -207q0 -97 -16 -171.5t-54 -137t-99.5 -103t-155 -62.5t-218.5 -22h-473v-313h-203zM375 504h479q178 0 254 68t76 231q0 165 -74.5 228t-259.5 63h-475v-590z" />
<glyph unicode="&#xdf;" horiz-adv-x="1351" d="M147 0v1098q0 84 15 155t52.5 136.5t96.5 110.5t151 72t212 27q250 0 368.5 -99.5t118.5 -301.5q0 -150 -52.5 -236t-156.5 -124q168 -32 248 -124t80 -272q0 -91 -14 -156t-52 -122t-104 -91t-171 -53.5t-253 -19.5h-129v180h125q102 0 175.5 14t117 36.5t68 60t32.5 75 t8 89.5q0 97 -37.5 153.5t-133 85.5t-265.5 29v166q164 0 241 62.5t77 197.5q0 127 -69 187.5t-224 60.5q-328 0 -328 -307v-1090h-197z" />
<glyph unicode="&#xe0;" horiz-adv-x="1284" d="M80 324q0 124 36.5 202.5t127 127.5t229.5 68t358 19h62q-2 67 -12.5 107.5t-40.5 72.5t-86 45t-146 13q-182 0 -336 -96l-104 155q70 47 196 87t263 40q98 0 169.5 -11t122.5 -36t83 -59t50.5 -88t25.5 -115t7 -147v-406q0 -85 18 -106t95 -21v-174q-14 -4 -82 -4 q-91 0 -131.5 28t-62.5 101q-53 -74 -155 -110.5t-280 -36.5q-96 0 -168 17.5t-117 47.5t-73 75t-38.5 94t-10.5 110zM268 1591h244l303 -336h-184zM270 338q0 -96 55 -141t195 -45q197 0 285 83t88 267v69h-51q-238 0 -359 -21.5t-167 -69.5t-46 -142z" />
<glyph unicode="&#xe1;" horiz-adv-x="1284" d="M80 324q0 124 36.5 202.5t127 127.5t229.5 68t358 19h62q-2 67 -12.5 107.5t-40.5 72.5t-86 45t-146 13q-182 0 -336 -96l-104 155q70 47 196 87t263 40q98 0 169.5 -11t122.5 -36t83 -59t50.5 -88t25.5 -115t7 -147v-406q0 -85 18 -106t95 -21v-174q-14 -4 -82 -4 q-91 0 -131.5 28t-62.5 101q-53 -74 -155 -110.5t-280 -36.5q-96 0 -168 17.5t-117 47.5t-73 75t-38.5 94t-10.5 110zM270 338q0 -96 55 -141t195 -45q197 0 285 83t88 267v69h-51q-238 0 -359 -21.5t-167 -69.5t-46 -142zM471 1255l303 336h244l-363 -336h-184z" />
<glyph unicode="&#xe2;" horiz-adv-x="1284" d="M80 324q0 124 36.5 202.5t127 127.5t229.5 68t358 19h62q-2 67 -12.5 107.5t-40.5 72.5t-86 45t-146 13q-182 0 -336 -96l-104 155q70 47 196 87t263 40q98 0 169.5 -11t122.5 -36t83 -59t50.5 -88t25.5 -115t7 -147v-406q0 -85 18 -106t95 -21v-174q-14 -4 -82 -4 q-91 0 -131.5 28t-62.5 101q-53 -74 -155 -110.5t-280 -36.5q-96 0 -168 17.5t-117 47.5t-73 75t-38.5 94t-10.5 110zM221 1255l314 336h215l313 -336h-193l-231 207l-227 -207h-191zM270 338q0 -96 55 -141t195 -45q197 0 285 83t88 267v69h-51q-238 0 -359 -21.5 t-167 -69.5t-46 -142z" />
<glyph unicode="&#xe3;" horiz-adv-x="1284" d="M80 324q0 124 36.5 202.5t127 127.5t229.5 68t358 19h62q-2 67 -12.5 107.5t-40.5 72.5t-86 45t-146 13q-182 0 -336 -96l-104 155q70 47 196 87t263 40q98 0 169.5 -11t122.5 -36t83 -59t50.5 -88t25.5 -115t7 -147v-406q0 -85 18 -106t95 -21v-174q-14 -4 -82 -4 q-91 0 -131.5 28t-62.5 101q-53 -74 -155 -110.5t-280 -36.5q-96 0 -168 17.5t-117 47.5t-73 75t-38.5 94t-10.5 110zM223 1356q139 170 275 170q47 0 89.5 -16t68 -35.5t59.5 -35.5t67 -16q66 0 164 113l117 -94q-148 -185 -277 -185q-43 0 -84.5 16t-68.5 35.5t-63 35.5 t-68 16q-36 0 -77.5 -26t-78.5 -74zM270 338q0 -96 55 -141t195 -45q197 0 285 83t88 267v69h-51q-238 0 -359 -21.5t-167 -69.5t-46 -142z" />
<glyph unicode="&#xe4;" horiz-adv-x="1284" d="M80 324q0 124 36.5 202.5t127 127.5t229.5 68t358 19h62q-2 67 -12.5 107.5t-40.5 72.5t-86 45t-146 13q-182 0 -336 -96l-104 155q70 47 196 87t263 40q98 0 169.5 -11t122.5 -36t83 -59t50.5 -88t25.5 -115t7 -147v-406q0 -85 18 -106t95 -21v-174q-14 -4 -82 -4 q-91 0 -131.5 28t-62.5 101q-53 -74 -155 -110.5t-280 -36.5q-96 0 -168 17.5t-117 47.5t-73 75t-38.5 94t-10.5 110zM270 338q0 -96 55 -141t195 -45q197 0 285 83t88 267v69h-51q-238 0 -359 -21.5t-167 -69.5t-46 -142zM332 1262v229h182v-229h-182zM774 1262v229h180 v-229h-180z" />
<glyph unicode="&#xe5;" horiz-adv-x="1284" d="M80 324q0 124 36.5 202.5t127 127.5t229.5 68t358 19h62q-2 67 -12.5 107.5t-40.5 72.5t-86 45t-146 13q-182 0 -336 -96l-104 155q70 47 196 87t263 40q98 0 169.5 -11t122.5 -36t83 -59t50.5 -88t25.5 -115t7 -147v-406q0 -85 18 -106t95 -21v-174q-14 -4 -82 -4 q-91 0 -131.5 28t-62.5 101q-53 -74 -155 -110.5t-280 -36.5q-96 0 -168 17.5t-117 47.5t-73 75t-38.5 94t-10.5 110zM270 338q0 -96 55 -141t195 -45q197 0 285 83t88 267v69h-51q-238 0 -359 -21.5t-167 -69.5t-46 -142zM385 1495q0 121 64 194.5t194 73.5 q125 0 190.5 -74t65.5 -194q0 -118 -65 -191t-191 -73q-130 0 -194 72.5t-64 191.5zM496 1495q0 -69 36 -111.5t111 -42.5q73 0 109 42.5t36 111.5t-36 111.5t-109 42.5q-75 0 -111 -42.5t-36 -111.5z" />
<glyph unicode="&#xe6;" horiz-adv-x="2019" d="M80 324q0 98 25.5 168t78.5 118.5t144 77t211.5 41t291.5 12.5h62q-2 67 -12.5 107.5t-40.5 72.5t-86 45t-146 13q-183 0 -340 -94l-100 153q70 47 196 87t263 40q164 0 254.5 -39t130.5 -118q122 157 426 157q101 0 179 -19t128.5 -53.5t86.5 -82.5t52 -106.5t26 -125 t8.5 -138t-1.5 -146.5h-840q4 -83 22 -142t58 -106.5t111.5 -71.5t175.5 -24q126 0 205.5 28t154.5 84l109 -139q-98 -75 -205 -110.5t-264 -35.5q-354 0 -469 209q-66 -122 -178 -164t-305 -42q-217 0 -314.5 84t-97.5 260zM270 338q0 -96 55 -141t197 -45q196 0 283.5 83 t87.5 267v69h-51q-236 0 -355.5 -20t-168 -68.5t-48.5 -144.5zM1079 668h650q-2 46 -4.5 75.5t-10.5 67t-20 61t-34 48t-52 38t-74 22.5t-100 9q-96 0 -163.5 -22.5t-107 -66.5t-59 -99.5t-25.5 -132.5z" />
<glyph unicode="&#xe7;" horiz-adv-x="1165" d="M92 571q0 111 15.5 197.5t54.5 163t102 126.5t161.5 78.5t229.5 28.5q271 0 424 -170l-145 -137q-111 115 -279 115q-103 0 -174.5 -27t-112 -81.5t-58 -126t-17.5 -171.5t17 -172t57 -127t111.5 -82.5t176.5 -27.5q89 0 155.5 27.5t133.5 88.5l133 -127 q-93 -87 -189.5 -127t-238.5 -40l-12 -70q54 3 92 -2t75.5 -21.5t57 -55.5t19.5 -99q0 -102 -68 -154.5t-215 -52.5q-139 0 -248 61l56 105q89 -47 184 -47q88 0 120.5 26t32.5 74q0 55 -42 73.5t-146 12.5l-49 35l22 123q-100 11 -175.5 45t-125 84.5t-80 122t-43 151.5 t-12.5 180z" />
<glyph unicode="&#xe8;" horiz-adv-x="1228" d="M92 571q0 105 13.5 188.5t51 161.5t98.5 130t160 83t232 31q86 0 155.5 -14.5t118 -41.5t85.5 -65t58.5 -84.5t36 -101t19 -114t7 -122.5t-0.5 -128h-841q5 -83 23 -142t58 -107t111 -71.5t174 -23.5q128 0 208 28t155 84l106 -139q-95 -74 -204.5 -110t-264.5 -36 q-114 0 -203 20.5t-149.5 60.5t-102 91.5t-64 121.5t-31.5 141t-9 159zM236 1591h243l303 -336h-184zM287 670h651q-3 47 -5.5 75t-10.5 66t-20 60.5t-34 48t-52 38.5t-74 22t-101 9q-77 0 -135 -15t-97 -41.5t-65 -67t-39 -87.5t-18 -108z" />
<glyph unicode="&#xe9;" horiz-adv-x="1228" d="M92 571q0 105 13.5 188.5t51 161.5t98.5 130t160 83t232 31q86 0 155.5 -14.5t118 -41.5t85.5 -65t58.5 -84.5t36 -101t19 -114t7 -122.5t-0.5 -128h-841q5 -83 23 -142t58 -107t111 -71.5t174 -23.5q128 0 208 28t155 84l106 -139q-95 -74 -204.5 -110t-264.5 -36 q-114 0 -203 20.5t-149.5 60.5t-102 91.5t-64 121.5t-31.5 141t-9 159zM287 670h651q-3 47 -5.5 75t-10.5 66t-20 60.5t-34 48t-52 38.5t-74 22t-101 9q-77 0 -135 -15t-97 -41.5t-65 -67t-39 -87.5t-18 -108zM438 1255l303 336h244l-362 -336h-185z" />
<glyph unicode="&#xea;" horiz-adv-x="1228" d="M92 571q0 105 13.5 188.5t51 161.5t98.5 130t160 83t232 31q86 0 155.5 -14.5t118 -41.5t85.5 -65t58.5 -84.5t36 -101t19 -114t7 -122.5t-0.5 -128h-841q5 -83 23 -142t58 -107t111 -71.5t174 -23.5q128 0 208 28t155 84l106 -139q-95 -74 -204.5 -110t-264.5 -36 q-114 0 -203 20.5t-149.5 60.5t-102 91.5t-64 121.5t-31.5 141t-9 159zM188 1255l314 336h215l313 -336h-192l-232 207l-227 -207h-191zM287 670h651q-3 47 -5.5 75t-10.5 66t-20 60.5t-34 48t-52 38.5t-74 22t-101 9q-77 0 -135 -15t-97 -41.5t-65 -67t-39 -87.5t-18 -108z " />
<glyph unicode="&#xeb;" horiz-adv-x="1228" d="M92 571q0 105 13.5 188.5t51 161.5t98.5 130t160 83t232 31q86 0 155.5 -14.5t118 -41.5t85.5 -65t58.5 -84.5t36 -101t19 -114t7 -122.5t-0.5 -128h-841q5 -83 23 -142t58 -107t111 -71.5t174 -23.5q128 0 208 28t155 84l106 -139q-95 -74 -204.5 -110t-264.5 -36 q-114 0 -203 20.5t-149.5 60.5t-102 91.5t-64 121.5t-31.5 141t-9 159zM287 670h651q-3 47 -5.5 75t-10.5 66t-20 60.5t-34 48t-52 38.5t-74 22t-101 9q-77 0 -135 -15t-97 -41.5t-65 -67t-39 -87.5t-18 -108zM299 1262v229h182v-229h-182zM741 1262v229h181v-229h-181z" />
<glyph unicode="&#xec;" horiz-adv-x="516" d="M-109 1587h242l223 -332h-184zM160 0v1139h196v-1139h-196z" />
<glyph unicode="&#xed;" horiz-adv-x="516" d="M160 0v1139h196v-1139h-196zM164 1255l219 332h244l-281 -332h-182z" />
<glyph unicode="&#xee;" horiz-adv-x="516" d="M-92 1255l248 332h202l250 -332h-190l-162 209l-166 -209h-182zM160 0v1139h196v-1139h-196z" />
<glyph unicode="&#xef;" horiz-adv-x="516" d="M-18 1278v227h163v-227h-163zM160 0v1139h196v-1139h-196zM373 1278v227h164v-227h-164z" />
<glyph unicode="&#xf0;" horiz-adv-x="1308" d="M92 547q0 133 27 234.5t85.5 178t158 116.5t237.5 40q146 0 233.5 -28.5t139.5 -88.5q-36 145 -123 273l-246 -62v142l154 39q-61 69 -148 147l185 78q95 -80 170 -172l280 72v-144l-196 -49q168 -290 168 -725q0 -324 -137 -472.5t-429 -148.5t-425.5 146t-133.5 424z M293 551q0 -197 84 -295t274 -98q194 0 278.5 98t84.5 295q0 199 -84 295t-279 96q-191 0 -274.5 -96t-83.5 -295z" />
<glyph unicode="&#xf1;" horiz-adv-x="1294" d="M147 0v1128l158 11l17 -109q99 135 419 135q106 0 181 -23t119 -61t69 -101t33 -128t8 -158v-694h-199v655q0 46 -1.5 76t-7.5 66t-17.5 59t-31.5 46.5t-49 37t-71 21.5t-96 8q-102 0 -169.5 -24t-101.5 -72.5t-46.5 -104.5t-12.5 -137v-631h-201zM223 1356 q139 170 275 170q47 0 89.5 -16t68 -35.5t59.5 -35.5t67 -16q66 0 164 113l117 -94q-148 -185 -277 -185q-43 0 -84.5 16t-68.5 35.5t-63 35.5t-68 16q-36 0 -77.5 -26t-78.5 -74z" />
<glyph unicode="&#xf2;" horiz-adv-x="1308" d="M92 571q0 299 132.5 446.5t428.5 147.5t430 -147.5t134 -446.5t-134 -446.5t-430 -147.5t-428.5 147.5t-132.5 446.5zM276 1591h244l303 -336h-184zM293 567q0 -205 83 -307t277 -102t277.5 102t83.5 307t-83.5 306.5t-277.5 101.5t-277 -101.5t-83 -306.5z" />
<glyph unicode="&#xf3;" horiz-adv-x="1308" d="M92 571q0 299 132.5 446.5t428.5 147.5t430 -147.5t134 -446.5t-134 -446.5t-430 -147.5t-428.5 147.5t-132.5 446.5zM293 567q0 -205 83 -307t277 -102t277.5 102t83.5 307t-83.5 306.5t-277.5 101.5t-277 -101.5t-83 -306.5zM479 1255l303 336h244l-362 -336h-185z" />
<glyph unicode="&#xf4;" horiz-adv-x="1308" d="M92 571q0 299 132.5 446.5t428.5 147.5t430 -147.5t134 -446.5t-134 -446.5t-430 -147.5t-428.5 147.5t-132.5 446.5zM229 1255l314 336h215l313 -336h-192l-232 207l-227 -207h-191zM293 567q0 -205 83 -307t277 -102t277.5 102t83.5 307t-83.5 306.5t-277.5 101.5 t-277 -101.5t-83 -306.5z" />
<glyph unicode="&#xf5;" horiz-adv-x="1308" d="M92 571q0 299 132.5 446.5t428.5 147.5t430 -147.5t134 -446.5t-134 -446.5t-430 -147.5t-428.5 147.5t-132.5 446.5zM231 1356q139 170 275 170q47 0 89.5 -16t68.5 -35.5t60 -35.5t67 -16q65 0 163 113l117 -94q-148 -185 -276 -185q-43 0 -84.5 16t-69 35.5 t-63.5 35.5t-68 16q-36 0 -77.5 -26t-78.5 -74zM293 567q0 -205 83 -307t277 -102t277.5 102t83.5 307t-83.5 306.5t-277.5 101.5t-277 -101.5t-83 -306.5z" />
<glyph unicode="&#xf6;" horiz-adv-x="1308" d="M92 571q0 299 132.5 446.5t428.5 147.5t430 -147.5t134 -446.5t-134 -446.5t-430 -147.5t-428.5 147.5t-132.5 446.5zM293 567q0 -205 83 -307t277 -102t277.5 102t83.5 307t-83.5 306.5t-277.5 101.5t-277 -101.5t-83 -306.5zM340 1262v229h182v-229h-182zM782 1262v229 h181v-229h-181z" />
<glyph unicode="&#xf7;" horiz-adv-x="1439" d="M211 627v190h1018v-190h-1018zM608 205v215h223v-215h-223zM608 1026v215h223v-215h-223z" />
<glyph unicode="&#xf8;" horiz-adv-x="1308" d="M92 571q0 301 130 447.5t431 146.5q147 0 244 -32l57 96h183l-99 -168q179 -140 179 -490q0 -301 -131.5 -447.5t-432.5 -146.5q-138 0 -243 31l-58 -94h-182l100 166q-178 137 -178 491zM289 567q0 -221 92 -319l420 710q-75 21 -148 21q-197 0 -280.5 -102.5 t-83.5 -309.5zM500 174q61 -20 153 -20q197 0 281 103t84 310q0 223 -94 320z" />
<glyph unicode="&#xf9;" horiz-adv-x="1280" d="M141 487v652h199v-656q0 -38 0.5 -58.5t3 -54t8 -51.5t16 -43.5t25.5 -39.5t38 -30.5t52.5 -24.5t70 -13.5t89.5 -5.5q63 0 111.5 9.5t80 21.5t53 39t32.5 47.5t16.5 62t6.5 67t1 76.5v4v650h195v-645q0 -78 -4.5 -135t-17.5 -113.5t-35.5 -95.5t-59.5 -73t-89 -54 t-124.5 -31.5t-165.5 -11.5t-165.5 11t-125.5 31t-90.5 54t-61 72.5t-36.5 94t-18 112t-5 132.5zM262 1591h244l303 -336h-184z" />
<glyph unicode="&#xfa;" horiz-adv-x="1280" d="M141 487v652h199v-656q0 -38 0.5 -58.5t3 -54t8 -51.5t16 -43.5t25.5 -39.5t38 -30.5t52.5 -24.5t70 -13.5t89.5 -5.5q63 0 111.5 9.5t80 21.5t53 39t32.5 47.5t16.5 62t6.5 67t1 76.5v4v650h195v-645q0 -78 -4.5 -135t-17.5 -113.5t-35.5 -95.5t-59.5 -73t-89 -54 t-124.5 -31.5t-165.5 -11.5t-165.5 11t-125.5 31t-90.5 54t-61 72.5t-36.5 94t-18 112t-5 132.5zM465 1255l303 336h244l-363 -336h-184z" />
<glyph unicode="&#xfb;" horiz-adv-x="1280" d="M141 487v652h199v-656q0 -38 0.5 -58.5t3 -54t8 -51.5t16 -43.5t25.5 -39.5t38 -30.5t52.5 -24.5t70 -13.5t89.5 -5.5q63 0 111.5 9.5t80 21.5t53 39t32.5 47.5t16.5 62t6.5 67t1 76.5v4v650h195v-645q0 -78 -4.5 -135t-17.5 -113.5t-35.5 -95.5t-59.5 -73t-89 -54 t-124.5 -31.5t-165.5 -11.5t-165.5 11t-125.5 31t-90.5 54t-61 72.5t-36.5 94t-18 112t-5 132.5zM215 1255l313 336h215l314 -336h-193l-231 207l-227 -207h-191z" />
<glyph unicode="&#xfc;" horiz-adv-x="1280" d="M141 487v652h199v-656q0 -38 0.5 -58.5t3 -54t8 -51.5t16 -43.5t25.5 -39.5t38 -30.5t52.5 -24.5t70 -13.5t89.5 -5.5q63 0 111.5 9.5t80 21.5t53 39t32.5 47.5t16.5 62t6.5 67t1 76.5v4v650h195v-645q0 -78 -4.5 -135t-17.5 -113.5t-35.5 -95.5t-59.5 -73t-89 -54 t-124.5 -31.5t-165.5 -11.5t-165.5 11t-125.5 31t-90.5 54t-61 72.5t-36.5 94t-18 112t-5 132.5zM326 1262v229h182v-229h-182zM768 1262v229h180v-229h-180z" />
<glyph unicode="&#xfd;" horiz-adv-x="1114" d="M14 1139h213l334 -889l332 889h209l-484 -1235q-51 -135 -129 -191.5t-227 -56.5q-79 0 -104 2v162h88q83 0 119.5 21.5t56.5 82.5l35 88zM389 1255l303 336h244l-363 -336h-184z" />
<glyph unicode="&#xfe;" horiz-adv-x="1343" d="M147 -338v1927h199v-563q47 72 147 105.5t271 33.5q113 0 197.5 -28.5t139.5 -79t89 -126.5t47.5 -163t13.5 -197q0 -108 -14 -194.5t-49 -162.5t-90.5 -126t-141.5 -79t-200 -29q-175 0 -269.5 33.5t-138.5 105.5v-457h-201zM348 565q0 -225 83.5 -314t289.5 -89 q95 0 160 27t101 81.5t51.5 125.5t15.5 169q0 99 -15 170.5t-50.5 127.5t-101 84t-161.5 28q-203 0 -288 -92t-85 -318z" />
<glyph unicode="&#xff;" horiz-adv-x="1114" d="M14 1139h213l334 -889l332 889h209l-484 -1235q-51 -135 -129 -191.5t-227 -56.5q-79 0 -104 2v162h88q83 0 119.5 21.5t56.5 82.5l35 88zM250 1262v229h182v-229h-182zM692 1262v229h180v-229h-180z" />
<glyph unicode="&#x152;" horiz-adv-x="2582" d="M84 760q0 404 195.5 593t578.5 189q402 0 580 -225v201h1020v-199h-832v-440h811v-191h-811v-498h840v-190h-1028v201q-179 -226 -580 -226q-383 0 -578.5 190t-195.5 595zM293 756q0 -292 133 -440t432 -148t433 148t134 440t-134 439.5t-433 147.5t-432 -147.5 t-133 -439.5z" />
<glyph unicode="&#x153;" horiz-adv-x="2150" d="M92 571q0 301 130 447.5t431 146.5q335 0 459 -200q119 200 457 200q101 0 178.5 -19t128 -53.5t86.5 -82.5t52.5 -106.5t26.5 -125t8.5 -138t-1.5 -146.5h-840q4 -83 22 -142t57.5 -106.5t111 -71.5t174.5 -24q128 0 207.5 28t154.5 84l109 -139q-98 -75 -205.5 -110.5 t-265.5 -35.5q-343 0 -461 199q-126 -199 -459 -199q-301 0 -431 146.5t-130 447.5zM293 567q0 -205 83 -307t277 -102t277.5 102t83.5 307t-83.5 306.5t-277.5 101.5t-277 -101.5t-83 -306.5zM1210 668h650q-3 47 -5.5 75.5t-10.5 66.5t-20 60.5t-34 48t-52 39t-74 22.5 t-101 9q-95 0 -162 -22.5t-106.5 -66.5t-59 -99.5t-25.5 -132.5z" />
<glyph unicode="&#x178;" horiz-adv-x="1466" d="M20 1518h226l489 -756l494 756h215l-608 -940v-578h-205v573zM418 1612v229h182v-229h-182zM860 1612v229h180v-229h-180z" />
<glyph unicode="&#x2c6;" d="M182 1255l314 336h215l313 -336h-193l-231 207l-227 -207h-191z" />
<glyph unicode="&#x2dc;" d="M184 1356q139 170 275 170q47 0 89.5 -16t68 -35.5t59.5 -35.5t67 -16q66 0 164 113l117 -94q-148 -185 -276 -185q-43 0 -84.5 16t-69 35.5t-63.5 35.5t-68 16q-36 0 -77.5 -26t-78.5 -74z" />
<glyph unicode="&#x2000;" horiz-adv-x="971" />
<glyph unicode="&#x2001;" horiz-adv-x="1942" />
<glyph unicode="&#x2002;" horiz-adv-x="971" />
<glyph unicode="&#x2003;" horiz-adv-x="1942" />
<glyph unicode="&#x2004;" horiz-adv-x="647" />
<glyph unicode="&#x2005;" horiz-adv-x="485" />
<glyph unicode="&#x2006;" horiz-adv-x="323" />
<glyph unicode="&#x2007;" horiz-adv-x="323" />
<glyph unicode="&#x2008;" horiz-adv-x="242" />
<glyph unicode="&#x2009;" horiz-adv-x="388" />
<glyph unicode="&#x200a;" horiz-adv-x="107" />
<glyph unicode="&#x2010;" horiz-adv-x="911" d="M98 549v186h711v-186h-711z" />
<glyph unicode="&#x2011;" horiz-adv-x="911" d="M98 549v186h711v-186h-711z" />
<glyph unicode="&#x2012;" horiz-adv-x="911" d="M98 549v186h711v-186h-711z" />
<glyph unicode="&#x2013;" horiz-adv-x="1460" d="M98 549v186h1264v-186h-1264z" />
<glyph unicode="&#x2014;" horiz-adv-x="1908" d="M98 549v186h1712v-186h-1712z" />
<glyph unicode="&#x2018;" horiz-adv-x="518" d="M133 969v205q0 150 39 219t164 131l53 -107q-77 -41 -102 -75.5t-25 -98.5h121v-274h-250z" />
<glyph unicode="&#x2019;" horiz-adv-x="518" d="M129 1069q77 40 102 74t25 98h-123v277h250v-203q0 -152 -38.5 -222t-162.5 -130z" />
<glyph unicode="&#x201a;" horiz-adv-x="518" d="M129 -147q77 42 102 75.5t25 100.5h-123v272h250v-205q0 -143 -39.5 -216.5t-161.5 -131.5z" />
<glyph unicode="&#x201c;" horiz-adv-x="917" d="M133 975v199q0 147 39 216t162 128l51 -105q-77 -40 -101 -73t-24 -97h119v-268h-246zM541 975v199q0 149 37 217t159 127l54 -105q-77 -40 -102 -73t-25 -97h118v-268h-241z" />
<glyph unicode="&#x201d;" horiz-adv-x="917" d="M129 1077q76 40 100.5 73.5t24.5 98.5h-121v269h246v-201q0 -147 -38.5 -215t-160.5 -127zM530 1077q78 40 103.5 73.5t25.5 98.5h-118v269h241v-201q0 -148 -37.5 -215.5t-158.5 -126.5z" />
<glyph unicode="&#x201e;" horiz-adv-x="917" d="M129 -143q76 39 100.5 72t24.5 100h-121v266h246v-199q0 -141 -39.5 -213.5t-159.5 -128.5zM530 -143q78 39 103.5 72.5t25.5 99.5h-118v266h241v-199q0 -141 -38.5 -213.5t-157.5 -128.5z" />
<glyph unicode="&#x2022;" horiz-adv-x="724" d="M199 438v369h327v-369h-327z" />
<glyph unicode="&#x2026;" horiz-adv-x="1484" d="M133 0v270h250v-270h-250zM616 0v270h250v-270h-250zM1102 0v270h250v-270h-250z" />
<glyph unicode="&#x202f;" horiz-adv-x="388" />
<glyph unicode="&#x2039;" horiz-adv-x="899" d="M178 567l309 572h181l-295 -572l295 -567h-181z" />
<glyph unicode="&#x203a;" horiz-adv-x="899" d="M229 0l297 569l-297 570h185l309 -570l-309 -569h-185z" />
<glyph unicode="&#x205f;" horiz-adv-x="485" />
<glyph unicode="&#x20ac;" horiz-adv-x="1386" d="M74 516v170h227v78v72h-227v170h241q35 267 169.5 401.5t389.5 134.5q134 0 220 -19.5t168 -62.5l-95 -172q-120 66 -286 66q-174 0 -260.5 -88t-112.5 -260h512v-170h-526v-68v-82h526v-170h-512q27 -179 113.5 -268.5t255.5 -89.5q172 0 292 73l101 -157 q-85 -53 -179 -76t-225 -23q-255 0 -386 137t-165 404h-241z" />
<glyph unicode="&#x2122;" horiz-adv-x="2236" d="M123 1374v144h788v-144h-317v-788h-154v788h-317zM1006 586v932h172l303 -727l301 727h174v-932h-152v661l-272 -661h-107l-274 661v-661h-145z" />
<glyph unicode="&#xe000;" horiz-adv-x="1136" d="M0 0v1137h1137v-1137h-1137z" />
</font>
</defs>
</svg>
